<?xml version="1.0" encoding="utf-8"?>
<!-- Generator: Adobe Illustrator 21.0.0, SVG Export Plug-In . SVG Version: 6.00 Build 0)  -->
<svg version="1.1" id="Layer_1" xmlns="http://www.w3.org/2000/svg" xmlns:xlink="http://www.w3.org/1999/xlink" x="0px" y="0px"
	 viewBox="0 0 512 512" style="enable-background:new 0 0 512 512;" xml:space="preserve">
<g>
	<path d="M290.8,207.4c-13.2,0-23.4,10.2-23.4,22.9c0,12.6,10.2,22.9,23.4,22.9c12.1,0,22.3-10.2,22.3-22.9
		C313.1,217.7,302.9,207.4,290.8,207.4z M130.8,207.4c-13.2,0-23.4,10.2-23.4,22.9c0,12.6,10.2,22.9,23.4,22.9
		c12.1,0,22.3-10.2,22.3-22.9C153.1,217.7,142.9,207.4,130.8,207.4z"/>
	<path d="M474.2,164c-27.5-37.7-65.9-62.9-108-74.3v0.1c-9.8-10.9-20.8-20.9-33.1-29.8C239.6-8,108.3,12.8,40,106.3
		c-55,76-52.7,178.2,3.4,250.8l0.5,75.8c0,1.8,0.3,3.7,0.9,5.4c3,9.7,13.3,15,22.9,11.9l72.3-22.8c19.1,6.8,38.9,10.7,58.6,11.8
		l-0.3,0.2c50.9,37.1,117.6,48.2,178.8,28l72.6,23.7c1.8,0.6,3.7,0.9,5.7,0.9c10.1,0,18.3-8.2,18.3-18.3v-76.6
		C524,328.8,525.3,234.4,474.2,164z M148,386.9l-6.9-2.9l-56.6,17.7L84,342.3l-4.6-5.1c-48.3-59-51.5-143.9-6.3-206.3
		c55.1-75.5,160.7-92.2,236-37.7c75.5,54.9,92.3,160.3,37.7,235.4C301.1,391.4,219.1,414.6,148,386.9z M436.5,377.1l-4.6,5.7
		l0.6,59.4l-56-18.9l-6.9,2.9c-32,11.9-66.1,12.9-97.7,4l-0.1-0.1c42.2-13,80.5-39.3,108.1-77.1c43.7-60.2,50.7-135.8,25.4-200.2
		l0.3,0.2c13.1,9.4,25.2,21.2,35.4,35.4C482.6,245.5,480.2,323,436.5,377.1z"/>
	<path d="M210.8,207.4c-13.2,0-23.4,10.2-23.4,22.9c0,12.6,10.2,22.9,23.4,22.9c12.1,0,22.3-10.2,22.3-22.9
		C233.1,217.7,222.9,207.4,210.8,207.4z"/>
</g>
</svg>
