<?xml version="1.0" encoding="utf-8"?>
<!-- Svg Vector Icons : http://www.onlinewebfonts.com/icon -->
<!DOCTYPE svg PUBLIC "-//W3C//DTD SVG 1.1//EN" "http://www.w3.org/Graphics/SVG/1.1/DTD/svg11.dtd">
<svg version="1.1" xmlns="http://www.w3.org/2000/svg" xmlns:xlink="http://www.w3.org/1999/xlink" x="0px" y="0px" viewBox="0 0 256 256" enable-background="new 0 0 256 256" xml:space="preserve">
<metadata> Svg Vector Icons : http://www.onlinewebfonts.com/icon </metadata>
<g><g><path fill="#000000" d="M128,10C62.8,10,10,62.8,10,128c0,65.2,52.8,118,118,118c65.2,0,118-52.8,118-118C246,62.8,193.2,10,128,10z M128,234.2c-58.6,0-106.2-47.6-106.2-106.2C21.8,69.5,69.4,21.8,128,21.8S234.2,69.5,234.2,128C234.2,186.6,186.6,234.2,128,234.2z"/><path fill="#000000" d="M132.1,58.8c-1.1-1-2.6-1.6-4.1-1.6c-1.5,0-3,0.6-4.1,1.6l-65,60.1c-1.1,1-1.7,2.4-1.7,3.9c0,1.5,0.6,2.8,1.7,3.9c1.1,1,2.6,1.6,4.1,1.6c1.5,0,3-0.6,4.1-1.6l13.8-12.8v67.4c0,3.2,2.6,5.8,5.8,5.8h82.5c3.2,0,5.8-2.6,5.8-5.8c0,0-0.2-80.3,0-67.5l14.6,13.5c1.1,1,2.6,1.6,4.1,1.6c1.5,0,3-0.6,4.1-1.6c1.1-1,1.7-2.4,1.7-3.9s-0.6-2.8-1.7-3.9L132.1,58.8z"/></g></g>
</svg>